<svg xmlns="http://www.w3.org/2000/svg" version="1.1" xmlns:xlink="http://www.w3.org/1999/xlink" xmlns:svgjs="http://svgjs.dev/svgjs" width="100%" height="100%" viewBox="0 0 1000 600"><rect width="1000" height="600" x="0" y="0" fill="#141a46"/><g><rect width="333.3333333333333" height="333.3333333333333" y="313.1436766309788" fill="#ec8b5e" transform="matrix(0.42966921903982913,0,0,0.4296692190398291,0,93.8402639519443)" x="290.92144775390625"/><path d="M413.32900787113306 554.8103293903034L413.32900787113306 554.8103293903034Q391.1028868954172 554.8103293903034 374.49474278560103 545.7162293386282Q357.88659867578497 536.6572416423649 348.75738626869787 520.2246593096081Q339.6281738616108 503.8271893322631 339.6281738616108 482.0926413323135L339.6281738616108 482.0926413323135Q339.6281738616108 459.02382382671266 349.2138468890522 441.67832025324725Q358.7644075610818 424.3328166797818 375.7236752250166 414.5715818752809Q392.71805524436337 404.81034707078015 414.80372679843174 404.81034707078015L414.80372679843174 404.81034707078015Q427.4090623912943 404.81034707078015 437.27563426203074 407.79489728078937Q447.14220613276717 410.7443351353868 454.30512663678934 413.76399770080786Q461.4680471408115 416.783660266229 465.7868668564719 416.783660266229L465.7868668564719 416.783660266229Q469.75456301801364 416.783660266229 471.82619198731413 414.0800088995147Q473.93293331202653 411.3763575328005 475.1618657514421 405.30192004654634L475.1618657514421 405.30192004654634L478.9891124913363 405.30192004654634Q478.7433260034532 410.49854864750364 478.4975395155701 416.92410968787647Q478.25175302768696 423.3496707282493 478.18152831686325 432.97045611110264Q478.14641596145134 442.5912414939559 478.14641596145134 457.549104899414L478.14641596145134 457.549104899414L474.1787197999097 457.549104899414Q469.1225406205999 433.07579317733826 453.6379918839637 420.68113171694694Q438.15344314732755 408.2864702565556 415.6815356837286 408.2864702565556L415.6815356837286 408.2864702565556Q389.3823814802354 408.2864702565556 374.7054169180723 427.036468046496Q359.99334000049737 445.8215781918483 359.99334000049737 479.2485405439518L359.99334000049737 479.2485405439518Q359.99334000049737 513.0968511609977 374.8107539843079 532.1979725050569Q389.62816796811853 551.3342062045278 415.6815356837286 551.3342062045278L415.6815356837286 551.3342062045278Q438.15344314732755 551.3342062045278 453.7433289501993 539.3608930090791Q469.368327108483 527.3875798136303 474.4245062877928 502.10668391708134L474.4245062877928 502.10668391708134L478.3922024493345 502.10668391708134Q478.3922024493345 516.0462890155951 478.42731480474635 525.4915126213891Q478.4975395155701 534.936736227183 478.70821364804135 541.6080837554389Q478.8837754251007 548.279431283695 479.12956191298383 554.3187564145371L479.12956191298383 554.3187564145371L475.3023151730896 554.3187564145371Q474.07338273367407 548.1389818620473 471.96664140896166 545.6108922723924Q469.85990008424926 543.0828026827376 466.032653344355 543.0828026827376L466.032653344355 543.0828026827376Q461.3627100745759 543.0828026827376 454.12956485972995 546.0322405373349Q446.896419644884 549.0167907473442 436.85428599708825 551.8960038911177Q426.7770399938806 554.8103293903034 413.32900787113306 554.8103293903034ZM506.90343504377563 551.9662286019416L506.90343504377563 551.9662286019416L506.90343504377563 548.1389818620473Q517.647815799809 547.6474088862813 522.8795567561781 546.2780270252181Q528.1464100679591 544.9437575195668 529.8669154831409 541.2920725567321Q531.5874208983226 537.6403875938972 531.5874208983226 530.6179165115225L531.5874208983226 530.6179165115225L531.5874208983226 428.8974228833253Q531.5874208983226 421.7345023793031 529.8669154831409 418.15304212729205Q528.1464100679591 414.5715818752809 522.8795567561781 413.20220001421785Q517.647815799809 411.8679305085667 506.90343504377563 411.3763575328005L506.90343504377563 411.3763575328005L506.90343504377563 407.6544478591419Q512.2054007109685 407.900234347025 520.9834895639369 408.1109084794963Q529.7264660614934 408.2864702565556 540.9624197932928 408.2864702565556L540.9624197932928 408.2864702565556Q551.7068005493261 408.2864702565556 560.906237667237 408.1109084794963Q570.1056747851478 407.900234347025 575.5480898739881 407.6544478591419L575.5480898739881 407.6544478591419L575.5480898739881 411.3763575328005Q564.8037091179549 411.8679305085667 559.501743450762 413.20220001421785Q554.1646654281573 414.5715818752809 552.4441600129755 418.15304212729205Q550.7236545977937 421.7345023793031 550.7236545977937 428.8974228833253L550.7236545977937 428.8974228833253L550.7236545977937 530.6179165115225Q550.7236545977937 537.7808370155446 552.4441600129755 541.3622972675557Q554.1646654281573 544.9437575195668 559.501743450762 546.2780270252181Q564.8037091179549 547.6474088862813 575.5480898739881 548.1389818620473L575.5480898739881 548.1389818620473L575.5480898739881 551.9662286019416Q570.1056747851478 551.7204421140584 560.906237667237 551.5448803369991Q551.7068005493261 551.3342062045278 540.9624197932928 551.3342062045278L540.9624197932928 551.3342062045278Q529.7264660614934 551.3342062045278 520.9834895639369 551.5448803369991Q512.2054007109685 551.7204421140584 506.90343504377563 551.9662286019416Z " fill="#141a46" transform="matrix(0.42966921903982913,0,0,0.4296692190398291,0,93.8402639519443)"/><path d="M781.2889688086331 554.8103293903034L781.2889688086331 554.8103293903034Q759.0628478329172 554.8103293903034 742.454703723101 545.7162293386282Q725.8465596132849 536.6572416423649 716.7173472061978 520.2246593096081Q707.5881347991108 503.8271893322631 707.5881347991108 482.0926413323135L707.5881347991108 482.0926413323135Q707.5881347991108 459.02382382671266 717.1738078265522 441.67832025324725Q726.7243684985817 424.3328166797818 743.6836361625167 414.5715818752809Q760.6780161818633 404.81034707078015 782.7636877359317 404.81034707078015L782.7636877359317 404.81034707078015Q795.3690233287942 404.81034707078015 805.2355951995307 407.79489728078937Q815.1021670702671 410.7443351353868 822.2650875742893 413.76399770080786Q829.4280080783114 416.783660266229 833.7468277939719 416.783660266229L833.7468277939719 416.783660266229Q837.7145239555135 416.783660266229 839.7861529248141 414.0800088995147Q841.8928942495265 411.3763575328005 843.1218266889421 405.30192004654634L843.1218266889421 405.30192004654634L846.9490734288363 405.30192004654634Q846.7032869409531 410.49854864750364 846.4575004530701 416.92410968787647Q846.211713965187 423.3496707282493 846.1414892543631 432.97045611110264Q846.1063768989513 442.5912414939559 846.1063768989513 457.549104899414L846.1063768989513 457.549104899414L842.1386807374096 457.549104899414Q837.0825015580998 433.07579317733826 821.5979528214637 420.68113171694694Q806.1134040848275 408.2864702565556 783.6414966212285 408.2864702565556L783.6414966212285 408.2864702565556Q757.3423424177354 408.2864702565556 742.6653778555723 427.036468046496Q727.9533009379973 445.8215781918483 727.9533009379973 479.2485405439518L727.9533009379973 479.2485405439518Q727.9533009379973 513.0968511609977 742.7707149218079 532.1979725050569Q757.5881289056185 551.3342062045278 783.6414966212285 551.3342062045278L783.6414966212285 551.3342062045278Q806.1134040848275 551.3342062045278 821.7032898876993 539.3608930090791Q837.328288045983 527.3875798136303 842.3844672252927 502.10668391708134L842.3844672252927 502.10668391708134L846.3521633868345 502.10668391708134Q846.3521633868345 516.0462890155951 846.3872757422463 525.4915126213891Q846.4575004530701 534.936736227183 846.6681745855414 541.6080837554389Q846.8437363626007 548.279431283695 847.0895228504838 554.3187564145371L847.0895228504838 554.3187564145371L843.2622761105896 554.3187564145371Q842.0333436711741 548.1389818620473 839.9266023464617 545.6108922723924Q837.8198610217493 543.0828026827376 833.992614281855 543.0828026827376L833.992614281855 543.0828026827376Q829.3226710120758 543.0828026827376 822.08952579723 546.0322405373349Q814.8563805823841 549.0167907473442 804.8142469345883 551.8960038911177Q794.7370009313805 554.8103293903034 781.2889688086331 554.8103293903034ZM923.1077723171896 554.8103293903034L923.1077723171896 554.8103293903034Q908.9223807307928 554.8103293903034 898.3184493964071 547.9985324403999Q887.6794057066094 541.2218478459083 881.7805299974146 529.1431975842238Q875.8465419328081 517.0294349671276 875.8465419328081 501.369324453432L875.8465419328081 501.369324453432Q875.8465419328081 475.561743225705 888.8732257906131 459.83140800118576Q901.8999096484182 444.0659604212546 924.7229406661359 444.0659604212546L924.7229406661359 444.0659604212546Q937.3282762589985 444.0659604212546 946.633050443145 450.7373079495106Q955.9729369827032 457.4086554777665 961.029116162013 468.0125868121523Q966.0852953413226 478.6516305019499 965.8395088534397 490.37915720951565L965.8395088534397 490.37915720951565L895.7201350959284 490.37915720951565Q895.579685674281 491.7134267151668 895.579685674281 494.20640394940983L895.579685674281 494.20640394940983Q895.579685674281 521.7344905923186 904.4279992380731 534.936736227183Q913.2412004464533 548.1389818620473 929.427996291327 548.1389818620473L929.427996291327 548.1389818620473Q939.7861411378295 548.1389818620473 948.5642299907979 543.1881397489733Q957.3072064883544 538.272409991311 962.3633856676641 527.0364562595114L962.3633856676641 527.0364562595114L965.6990594317921 531.1094894872888Q960.8886667403655 542.9423532610901 949.6176006531541 548.8763413256968Q938.3114222105308 554.8103293903034 923.1077723171896 554.8103293903034ZM923.4940082267203 448.0336565827963L923.4940082267203 448.0336565827963Q916.8226606984643 448.0336565827963 910.9588973446815 453.65163344869603Q905.0951339908986 459.2696103145958 901.092325473945 468.08281152297604Q897.0895169569916 476.8960127313563 895.9659215838116 486.3061239817383L895.9659215838116 486.3061239817383L946.317039244438 486.3061239817383Q946.7032751539687 465.0631489575549 941.0852982880689 456.5308465924697Q935.4673214221691 448.0336565827963 923.4940082267203 448.0336565827963ZM983.0094506498457 551.9662286019416L983.0094506498457 551.9662286019416L983.0094506498457 548.1389818620473Q992.4897866110515 547.8931953741643 995.8956850860033 544.9437575195668Q999.301583560955 541.9592073095577 999.301583560955 533.4620172998843L999.301583560955 533.4620172998843L999.301583560955 468.644609209566Q999.301583560955 459.5153968024789 995.5796738872964 455.51258828552534Q991.8928765690497 451.4746674131599 983.0094506498457 450.7373079495106L983.0094506498457 450.7373079495106L983.0094506498457 446.91006120961634Q987.3282703655062 447.4016341853826 990.6990564850461 447.47185889620636Q994.1049549599977 447.54208360703007 997.3001793024781 447.54208360703007L997.3001793024781 447.54208360703007Q1002.0052349276692 447.54208360703007 1007.3072005948621 446.91006120961634Q1012.609166262055 446.31315116761454 1017.6653454413648 444.6979828186683L1017.6653454413648 444.6979828186683L1017.6653454413648 458.39180142929894Q1021.492592181259 451.12354385904115 1029.1119733056355 447.61230831785383Q1036.6962420746001 444.0659604212546 1043.9644996448578 444.0659604212546L1043.9644996448578 444.0659604212546Q1051.6189931246463 444.0659604212546 1056.1835993281898 449.4381507992712Q1060.7482055317334 454.81034117728785 1060.7482055317334 463.34264354237314L1060.7482055317334 463.34264354237314Q1060.7482055317334 470.856687600514 1058.1850035866667 475.73730500276446Q1055.5866892861882 480.61792240501484 1051.2678695705276 480.61792240501484L1051.2678695705276 480.61792240501484Q1047.1948363427505 480.61792240501484 1044.6667467530956 478.1951698815955Q1042.1386571634407 475.80752971358817 1042.1386571634407 471.59404706416336L1042.1386571634407 471.59404706416336Q1042.1386571634407 465.80050842120426 1043.8591625786225 462.2190481691932Q1045.5796679938042 458.6375879171821 1045.5796679938042 454.31876820152166L1045.5796679938042 454.31876820152166Q1045.5796679938042 450.4915214616274 1039.540342862962 450.4915214616274L1039.540342862962 450.4915214616274Q1033.3605683104722 450.4915214616274 1026.513659005157 454.21343113528604Q1019.6667496998415 457.90022845353275 1017.6653454413648 468.0125868121523L1017.6653454413648 468.0125868121523L1017.6653454413648 531.9521860171737Q1017.6653454413648 540.730274870142 1022.4406257773795 544.3117351221531Q1027.1807937579824 547.8931953741643 1038.8029833993126 548.1389818620473L1038.8029833993126 548.1389818620473L1038.8029833993126 551.9662286019416Q1034.2383771957689 551.7204421140584 1025.7762995415073 551.4044309153517Q1017.314221887246 551.0884197166447 1008.9223689438082 551.0884197166447L1008.9223689438082 551.0884197166447Q1001.0220889761368 551.0884197166447 993.8591684721147 551.4044309153517Q986.6962479680925 551.7204421140584 983.0094506498457 551.9662286019416ZM1071.8788221972973 551.9662286019416L1071.8788221972973 551.9662286019416L1071.8788221972973 548.1389818620473Q1083.36056241698 548.279431283695 1087.6793821326405 544.8033080979194Q1091.9982018483006 541.3622972675557 1091.9982018483006 533.4620172998843L1091.9982018483006 533.4620172998843L1091.9982018483006 468.644609209566Q1091.9982018483006 459.5153968024789 1087.503820355581 455.51258828552534Q1082.9743265074494 451.4746674131599 1071.8788221972973 450.7373079495106L1071.8788221972973 450.7373079495106L1071.8788221972973 446.91006120961634Q1075.319833027661 447.4016341853826 1079.1470797675552 447.47185889620636Q1082.9743265074494 447.54208360703007 1087.0473597352266 447.54208360703007L1087.0473597352266 447.54208360703007Q1093.4729207755995 447.54208360703007 1099.3366841293823 446.91006120961634Q1105.2004474831651 446.31315116761454 1110.3970760841225 444.6979828186683L1110.3970760841225 444.6979828186683L1110.3970760841225 467.1698902822673Q1115.6990417513152 455.1965770868185 1124.687804736755 449.64882493174247Q1133.7116800776066 444.0659604212546 1144.4560608336396 444.0659604212546L1144.4560608336396 444.0659604212546Q1167.0333053634743 444.0659604212546 1174.1962258674964 467.90724974591666L1174.1962258674964 467.90724974591666Q1179.6386409563368 454.45921762316914 1189.4349881162495 449.2625890222119Q1199.266447631574 444.0659604212546 1211.2397608270228 444.0659604212546L1211.2397608270228 444.0659604212546Q1227.0403207623658 444.0659604212546 1235.5023984166273 455.79348712882035Q1243.9644760708888 467.52101383638603 1243.9644760708888 490.37915720951565L1243.9644760708888 490.37915720951565L1243.9644760708888 533.4620172998843Q1243.9644760708888 541.7134208216746 1248.2832957865494 544.9788698749787Q1252.6021155022097 548.279431283695 1264.189192788128 548.1389818620473L1264.189192788128 548.1389818620473L1264.189192788128 551.9662286019416Q1260.010822494115 551.7204421140584 1251.4785201290297 551.4044309153517Q1242.9462177639446 551.0884197166447 1234.9406007300372 551.0884197166447L1234.9406007300372 551.0884197166447Q1227.6723431597798 551.0884197166447 1220.6849844328167 551.4044309153517Q1213.697625705854 551.7204421140584 1210.2566148754904 551.9662286019416L1210.2566148754904 551.9662286019416L1210.2566148754904 548.1389818620473Q1219.1400407946944 548.279431283695 1222.335265137175 544.9788698749787Q1225.5656018350674 541.7134208216746 1225.5656018350674 533.4620172998843L1225.5656018350674 533.4620172998843L1225.5656018350674 480.37213591713174Q1225.5656018350674 464.9226995359074 1220.2636361678742 457.7948913872971Q1214.9265581452696 450.63197088327496 1204.4630762325314 450.63197088327496L1204.4630762325314 450.63197088327496Q1195.7903244457987 450.63197088327496 1188.2762803876576 455.75837477340843Q1180.7622363295168 460.8496663081301 1175.5656077285594 473.45500190099267L1175.5656077285594 473.45500190099267Q1177.0403266558583 481.1094953807811 1177.0403266558583 490.37915720951565L1177.0403266558583 490.37915720951565L1177.0403266558583 533.4620172998843Q1177.0403266558583 541.7134208216746 1180.3057757091624 544.9788698749787Q1183.5712247624665 548.279431283695 1192.4897630370824 548.1389818620473L1192.4897630370824 548.1389818620473L1192.4897630370824 551.9662286019416Q1189.0136398513068 551.7204421140584 1181.9911687689323 551.4044309153517Q1174.9335853311459 551.0884197166447 1168.0164513150066 551.0884197166447L1168.0164513150066 551.0884197166447Q1160.8886431663964 551.0884197166447 1153.9012844394338 551.4044309153517Q1146.9139257124707 551.7204421140584 1143.4729148821073 551.9662286019416L1143.4729148821073 551.9662286019416L1143.4729148821073 548.1389818620473Q1152.2158913796636 548.279431283695 1155.5164527883799 544.9788698749787Q1158.781901841684 541.7134208216746 1158.781901841684 533.4620172998843L1158.781901841684 533.4620172998843L1158.781901841684 480.37213591713174Q1158.781901841684 464.9226995359074 1153.4799361744913 457.7948913872971Q1148.1428581518862 450.63197088327496 1137.679376239148 450.63197088327496L1137.679376239148 450.63197088327496Q1120.8605579968607 450.63197088327496 1110.3970760841225 475.80752971358817L1110.3970760841225 475.80752971358817L1110.3970760841225 533.4620172998843Q1110.3970760841225 541.3622972675557 1113.6625251374267 544.8033080979194Q1116.9279741907308 548.279431283695 1125.8114001099348 548.1389818620473L1125.8114001099348 548.1389818620473L1125.8114001099348 551.9662286019416Q1120.509434442742 551.7204421140584 1114.2243228240168 551.4044309153517Q1107.9040988498796 551.0884197166447 1100.9869648337403 551.0884197166447L1100.9869648337403 551.0884197166447Q1093.85915668513 551.0884197166447 1086.3100002715773 551.2990938491159Q1078.7959562134365 551.4746556261753 1071.8788221972973 551.9662286019416ZM1307.166715812261 554.8103293903034L1307.166715812261 554.8103293903034Q1294.8071667072816 554.8103293903034 1287.4686844262 547.6474088862813Q1280.1302021451183 540.484488382259 1280.1302021451183 526.6502203499808L1280.1302021451183 526.6502203499808Q1280.1302021451183 516.7836484792444 1283.8872241741888 510.99010983628534Q1287.6442462032594 505.1965711933262 1293.6835713341015 502.0364592062576Q1299.7580088203558 498.876347219189 1306.6751428364946 497.08561709318343Q1313.557164497222 495.2948869671779 1319.982725537595 493.6446062628199Q1326.4082865779678 491.95921320304996 1330.7973310044517 489.0800000592763Q1335.186375430936 486.16567456009085 1336.1695213824687 480.72325947125046L1336.1695213824687 480.72325947125046Q1335.2917124971718 465.80050842120426 1330.9026680706875 457.549104899414Q1326.548735999615 449.2625890222119 1318.3675571886488 449.2625890222119L1318.3675571886488 449.2625890222119Q1310.4672772209772 449.2625890222119 1304.6035138671941 451.68534154563116Q1298.7748628688232 454.0729817136385 1298.7748628688232 458.14601494141584L1298.7748628688232 458.14601494141584Q1298.7748628688232 461.97326168131 1301.4785142355377 466.5378678848536Q1304.1821656022516 471.1024740883971 1304.1821656022516 475.17550731617445L1304.1821656022516 475.17550731617445Q1304.1821656022516 479.0027540560687 1301.6540760125968 481.24994480242856Q1299.1259864229419 483.4620231933766 1294.947616128929 483.4620231933766L1294.947616128929 483.4620231933766Q1290.1021110820905 483.4620231933766 1287.152673227493 480.1263494292486Q1284.203235372896 476.79067566512066 1284.203235372896 471.1024740883971L1284.203235372896 471.1024740883971Q1284.203235372896 463.8342165181393 1289.364751618441 457.6544419656496Q1294.5613802193984 451.4746674131599 1303.4448061386024 447.7878700949132Q1312.3282320578064 444.0659604212546 1323.213062235487 444.0659604212546L1323.213062235487 444.0659604212546Q1340.4883410981288 444.0659604212546 1347.5810368913271 456.03927361670344Q1354.673732684526 468.0125868121523 1354.673732684526 489.992921299985L1354.673732684526 489.992921299985L1354.673732684526 539.2555559428433Q1354.673732684526 548.8763413256968 1360.6077207491326 548.8763413256968L1360.6077207491326 548.8763413256968Q1363.9433945132605 548.8763413256968 1367.033281789505 547.963420084988Q1370.12316906575 547.0153864888675 1372.1947980350506 542.4507802853238L1372.1947980350506 542.4507802853238L1374.301539359763 545.7864540494518Q1369.7369331562195 551.3342062045278 1365.3478887297351 553.0898239751216Q1360.9588443032512 554.8103293903034 1354.076822642524 554.8103293903034L1354.076822642524 554.8103293903034Q1336.5206449365874 554.8103293903034 1336.5206449365874 536.1656686665985L1336.5206449365874 536.1656686665985Q1331.2186792693942 544.8033080979194 1323.9504216991368 549.7892625664053Q1316.647051773467 554.8103293903034 1307.166715812261 554.8103293903034ZM1315.5585687556986 546.0322405373349L1315.5585687556986 546.0322405373349Q1321.4574444648938 546.0322405373349 1326.9700842645575 542.9423532610901Q1332.4476117088097 539.8524659848453 1336.4153078703516 531.846848950938L1336.4153078703516 531.846848950938L1336.4153078703516 488.62353943892197Q1336.4153078703516 486.65724753585704 1336.4153078703516 484.69095563279217L1336.4153078703516 484.69095563279217Q1335.0459260092885 491.116516673165 1330.9026680706875 493.7148309736436Q1326.7945224874984 496.2780329187104 1321.4574444648938 497.64741477977344Q1316.1554787977007 499.0167966408365 1311.029074907567 501.2288750317845Q1305.9026710174335 503.44095342273255 1302.5669972533055 508.8833685115729Q1299.2664358445895 514.3257836004133 1299.2664358445895 525.4212879105653L1299.2664358445895 525.4212879105653Q1299.2664358445895 535.5336462691848 1303.6203679156617 540.8004995809658Q1308.0094123421459 546.0322405373349 1315.5585687556986 546.0322405373349ZM1416.9981635406011 554.8103293903034L1416.9981635406011 554.8103293903034Q1404.4279403031505 554.8103293903034 1398.9855252143102 547.4016223983981Q1393.5782224808813 539.9929154064928 1393.5782224808813 523.2092095196173L1393.5782224808813 523.2092095196173L1393.5782224808813 450.9830944373937L1376.6540671723587 450.9830944373937L1376.6540671723587 447.1558476974995L1393.5782224808813 447.1558476974995L1393.5782224808813 416.0463008025796Q1398.3886151723082 416.1867502242271 1403.0585584420874 415.23871662810654Q1407.7636140672785 414.3257953873978 1411.9419843612914 413.0968629479823L1411.9419843612914 413.0968629479823L1411.9419843612914 447.1558476974995L1436.5206331496029 447.1558476974995L1436.5206331496029 450.9830944373937L1411.9419843612914 450.9830944373937L1411.9419843612914 536.6572416423649Q1411.9419843612914 542.696566773207 1414.2242874630633 545.6108922723924Q1416.5065905648348 548.525217771578 1422.0894550753228 548.525217771578L1422.0894550753228 548.525217771578Q1427.4967578087512 548.525217771578 1431.710240458176 542.0996567312052Q1435.888610752189 535.6740956908322 1437.503779101135 526.053310307979L1437.503779101135 526.053310307979L1440.3478798894967 526.896006837864Q1435.642824264306 554.8103293903034 1416.9981635406011 554.8103293903034ZM1452.3211930849457 551.9662286019416L1452.3211930849457 551.9662286019416L1452.3211930849457 548.1389818620473Q1463.0655738409791 547.6474088862813 1468.297314797348 546.2780270252181Q1473.5641681091292 544.9437575195668 1475.284673524311 541.2920725567321Q1477.0051789394925 537.6403875938972 1477.0051789394925 530.6179165115225L1477.0051789394925 530.6179165115225L1477.0051789394925 428.8974228833253Q1477.0051789394925 421.7345023793031 1475.284673524311 418.15304212729205Q1473.5641681091292 414.5715818752809 1468.297314797348 413.20220001421785Q1463.0655738409791 411.8679305085667 1452.3211930849457 411.3763575328005L1452.3211930849457 411.3763575328005L1452.3211930849457 407.6544478591419Q1457.6231587521388 407.900234347025 1466.401247605107 408.1109084794963Q1475.1442241026634 408.2864702565556 1486.3801778344628 408.2864702565556L1486.3801778344628 408.2864702565556Q1497.1245585904962 408.2864702565556 1506.323995708407 408.1109084794963Q1515.5234328263177 407.900234347025 1520.965847915158 407.6544478591419L1520.965847915158 407.6544478591419L1520.965847915158 411.3763575328005Q1510.221467159125 411.8679305085667 1504.919501491932 413.20220001421785Q1499.5824234693273 414.5715818752809 1497.8619180541455 418.15304212729205Q1496.1414126389636 421.7345023793031 1496.1414126389636 428.8974228833253L1496.1414126389636 428.8974228833253L1496.1414126389636 530.6179165115225Q1496.1414126389636 537.7808370155446 1497.8619180541455 541.3622972675557Q1499.5824234693273 544.9437575195668 1504.919501491932 546.2780270252181Q1510.221467159125 547.6474088862813 1520.965847915158 548.1389818620473L1520.965847915158 548.1389818620473L1520.965847915158 551.9662286019416Q1515.5234328263177 551.7204421140584 1506.323995708407 551.5448803369991Q1497.1245585904962 551.3342062045278 1486.3801778344628 551.3342062045278L1486.3801778344628 551.3342062045278Q1475.1442241026634 551.3342062045278 1466.401247605107 551.5448803369991Q1457.6231587521388 551.7204421140584 1452.3211930849457 551.9662286019416ZM1538.2411267777998 551.9662286019416L1538.2411267777998 551.9662286019416L1538.2411267777998 548.1389818620473Q1549.090844600069 548.279431283695 1553.23410253867 544.8033080979194Q1557.377360477271 541.3622972675557 1557.377360477271 533.4620172998843L1557.377360477271 533.4620172998843L1557.377360477271 468.644609209566Q1557.377360477271 459.5153968024789 1553.0585407616104 455.51258828552534Q1548.7397210459499 451.4746674131599 1538.2411267777998 450.7373079495106L1538.2411267777998 450.7373079495106L1538.2411267777998 446.91006120961634Q1541.822587029811 447.4016341853826 1545.5796090588815 447.47185889620636Q1549.336631087952 447.54208360703007 1553.1638778278461 447.54208360703007L1553.1638778278461 447.54208360703007Q1559.0978658924528 447.54208360703007 1564.821179824588 446.91006120961634Q1570.5796061121355 446.31315116761454 1575.776234713093 444.6979828186683L1575.776234713093 444.6979828186683L1575.776234713093 466.9241037943842Q1580.8324138924027 455.056127665171 1589.7158398116062 449.57860022091876Q1598.5992657308102 444.0659604212546 1609.3436464868437 444.0659604212546L1609.3436464868437 444.0659604212546Q1624.6526334464202 444.0659604212546 1632.9040369682107 456.0041612612916Q1641.1905528454126 467.90724974591666 1641.1905528454126 490.37915720951565L1641.1905528454126 490.37915720951565L1641.1905528454126 533.4620172998843Q1641.1905528454126 541.7134208216746 1645.3338107840136 544.9788698749787Q1649.4419563672031 548.279431283695 1660.3267865448838 548.1389818620473L1660.3267865448838 548.1389818620473L1660.3267865448838 551.9662286019416Q1656.2537533171062 551.7204421140584 1648.1076868615519 551.4044309153517Q1639.961620405997 551.0884197166447 1632.166677504561 551.0884197166447L1632.166677504561 551.0884197166447Q1625.0037570005393 551.0884197166447 1618.332409472283 551.4044309153517Q1611.696174299439 551.7204421140584 1608.2200511136634 551.9662286019416L1608.2200511136634 551.9662286019416L1608.2200511136634 548.1389818620473Q1616.7523534787488 548.279431283695 1619.77201604417 544.9788698749787Q1622.7916786095911 541.7134208216746 1622.7916786095911 533.4620172998843L1622.7916786095911 533.4620172998843L1622.7916786095911 480.37213591713174Q1622.7916786095911 464.9226995359074 1617.5599376532218 457.7948913872971Q1612.293084341441 450.63197088327496 1601.794490073291 450.63197088327496L1601.794490073291 450.63197088327496Q1585.642806583829 450.63197088327496 1575.776234713093 475.80752971358817L1575.776234713093 475.80752971358817L1575.776234713093 533.4620172998843Q1575.776234713093 541.3622972675557 1578.9012343447494 544.8033080979194Q1582.0613463318182 548.279431283695 1590.3127498536082 548.1389818620473L1590.3127498536082 548.1389818620473L1590.3127498536082 551.9662286019416Q1585.642806583829 551.7204421140584 1579.4630320313395 551.4044309153517Q1573.2832574788495 551.0884197166447 1566.3661234627107 551.0884197166447L1566.3661234627107 551.0884197166447Q1558.8520794045694 551.0884197166447 1551.4433724126643 551.2990938491159Q1544.0346654207592 551.4746556261753 1538.2411267777998 551.9662286019416ZM1739.575372709482 489.2555618363357L1718.9644200827124 554.5645429024203L1715.382959830701 554.5645429024203L1680.5515032621229 462.9564076328425Q1676.37313296811 451.720453901043 1664.6456062605444 450.9830944373937L1664.6456062605444 450.9830944373937L1664.6456062605444 447.0505106312639Q1668.964425976205 447.1558476974995 1673.6343692459836 447.29629711914697Q1678.3394248711747 447.4016341853826 1685.8885812847275 447.4016341853826L1685.8885812847275 447.4016341853826Q1695.8604902216998 447.4016341853826 1701.1624558888925 447.4016341853826Q1706.499533911497 447.4016341853826 1712.2930725544566 447.0505106312639L1712.2930725544566 447.0505106312639L1712.2930725544566 450.9830944373937Q1704.2523431651375 450.9830944373937 1701.548691798423 454.74011646646414Q1698.8450404317086 458.53225085094647 1702.7776242378386 469.1361821853322L1702.7776242378386 469.1361821853322L1724.0205992620222 525.5617373322127L1739.8211591973654 474.4381478525251Q1742.1736870099608 467.02944086061984 1743.4026194493763 461.97326168131Q1744.6315518887918 456.91708250200026 1741.9279005220774 454.1432064244623Q1739.1891367999515 451.3693303469243 1729.708800838746 450.9830944373937L1729.708800838746 450.9830944373937L1729.708800838746 447.0505106312639Q1737.3632943185344 447.4016341853826 1740.6638557272504 447.47185889620636Q1743.9995294913783 447.54208360703007 1748.9503716044524 447.54208360703007L1748.9503716044524 447.54208360703007Q1754.2523372716455 447.54208360703007 1758.5711569873056 447.54208360703007Q1762.8899767029661 447.54208360703007 1766.1203134008583 447.0505106312639L1766.1203134008583 447.0505106312639L1766.1203134008583 450.9830944373937Q1757.0964380600071 453.0898357621061 1751.0571129291648 462.53505936790003Q1744.9826754429105 471.980282973694 1739.575372709482 489.2555618363357L1739.575372709482 489.2555618363357ZM1827.81272185952 554.8103293903034L1827.81272185952 554.8103293903034Q1813.6273302731229 554.8103293903034 1803.0233989387375 547.9985324403999Q1792.3843552489398 541.2218478459083 1786.485479539745 529.1431975842238Q1780.5514914751384 517.0294349671276 1780.5514914751384 501.369324453432L1780.5514914751384 501.369324453432Q1780.5514914751384 475.561743225705 1793.5781753329434 459.83140800118576Q1806.6048591907484 444.0659604212546 1829.4278902084661 444.0659604212546L1829.4278902084661 444.0659604212546Q1842.0332258013286 444.0659604212546 1851.337999985475 450.7373079495106Q1860.6778865250335 457.4086554777665 1865.7340657043433 468.0125868121523Q1870.790244883653 478.6516305019499 1870.54445839577 490.37915720951565L1870.54445839577 490.37915720951565L1800.4250846382588 490.37915720951565Q1800.2846352166112 491.7134267151668 1800.2846352166112 494.20640394940983L1800.2846352166112 494.20640394940983Q1800.2846352166112 521.7344905923186 1809.1329487804032 534.936736227183Q1817.9461499887834 548.1389818620473 1834.1329458336572 548.1389818620473L1834.1329458336572 548.1389818620473Q1844.4910906801597 548.1389818620473 1853.2691795331284 543.1881397489733Q1862.0121560306848 538.272409991311 1867.0683352099945 527.0364562595114L1867.0683352099945 527.0364562595114L1870.4040089741225 531.1094894872888Q1865.5936162826956 542.9423532610901 1854.3225501954844 548.8763413256968Q1843.0163717528612 554.8103293903034 1827.81272185952 554.8103293903034ZM1828.1989577690506 448.0336565827963L1828.1989577690506 448.0336565827963Q1821.5276102407947 448.0336565827963 1815.663846887012 453.65163344869603Q1809.800083533229 459.2696103145958 1805.7972750162753 468.08281152297604Q1801.794466499322 476.8960127313563 1800.6708711261417 486.3061239817383L1800.6708711261417 486.3061239817383L1851.0219887867684 486.3061239817383Q1851.408224696299 465.0631489575549 1845.790247830399 456.5308465924697Q1840.1722709644991 448.0336565827963 1828.1989577690506 448.0336565827963ZM1928.444732469949 554.8103293903034L1928.444732469949 554.8103293903034Q1920.6497895685134 554.8103293903034 1915.7691721662632 553.0195992642978Q1910.8885547640125 551.2288691382923 1907.9391169094151 549.5083637231105Q1904.9896790548178 547.7527459525168 1902.6371512422224 547.7527459525168L1902.6371512422224 547.7527459525168Q1900.5304099175096 547.7527459525168 1898.493893303621 549.2625772352274Q1896.4573766897324 550.737296162526 1895.6146801598475 554.3187564145371L1895.6146801598475 554.3187564145371L1891.892770486189 554.3187564145371Q1892.524792883603 553.9325205050066 1892.8056917268977 550.9128579395854Q1893.1217029256045 547.8931953741643 1893.0514782147807 538.8693200333128Q1893.0163658593688 529.8805570478733 1892.524792883603 511.48168281205153L1892.524792883603 511.48168281205153L1896.1062531356138 511.48168281205153Q1898.5641180144448 529.6347705599901 1905.3408026089364 540.3089266051995Q1912.15259955884 550.9830826504092 1925.109058705821 550.9830826504092L1925.109058705821 550.9830826504092Q1935.6076529739712 550.9830826504092 1941.4714163277545 545.2246563628619Q1947.3351796815368 539.5013424307265 1947.3351796815368 528.265388698927L1947.3351796815368 528.265388698927Q1947.3351796815368 518.01258091866 1942.946135255053 512.6403905406434Q1938.5570908285686 507.2682001626267 1926.829564121003 503.8271893322631L1926.829564121003 503.8271893322631Q1911.1694536073078 499.1221337070721 1903.269173639636 493.6446062628199Q1895.3688936719645 488.1319664631557 1895.3688936719645 475.4212938040576L1895.3688936719645 475.4212938040576Q1895.3688936719645 460.8496663081301 1903.6202971937546 452.45781336469236Q1911.9068130709566 444.0659604212546 1924.968609284174 444.0659604212546L1924.968609284174 444.0659604212546Q1932.0261927219603 444.0659604212546 1935.9587765280903 445.85669054726014Q1939.9264726896317 447.6474206732657 1942.4545622792866 449.4381507992712Q1944.9826518689415 451.22888092527677 1947.686303235656 451.22888092527677L1947.686303235656 451.22888092527677Q1951.6539993971974 451.22888092527677 1953.8660777881455 444.6979828186683L1953.8660777881455 444.6979828186683L1957.3070886185092 444.6979828186683Q1956.4643920886242 450.9830944373937 1956.3941673778004 459.02382382671266Q1956.3239426669766 467.02944086061984 1956.8155156427429 480.61792240501484L1956.8155156427429 480.61792240501484L1953.2340553907316 480.61792240501484Q1952.1455723729637 465.4493848670855 1945.0528765797653 456.7766330803528Q1937.925068431155 448.13899364903193 1927.3211370967692 448.13899364903193L1927.3211370967692 448.13899364903193Q1918.9292841533315 448.13899364903193 1913.9433296848451 452.9142739850467Q1908.9222628609477 457.6544419656496 1908.9222628609477 467.4156767701504L1908.9222628609477 467.4156767701504Q1908.9222628609477 476.79067566512066 1914.7860262147306 481.1797200916048Q1920.6497895685134 485.568764518089 1933.7466981371422 489.5013483242188L1933.7466981371422 489.5013483242188Q1947.9320897235389 493.7148309736436 1954.4278754747356 500.4915155681352Q1960.88854887052 507.2682001626267 1960.88854887052 520.2246593096081L1960.88854887052 520.2246593096081Q1960.88854887052 536.6572416423649 1952.1806847283756 545.7162293386282Q1943.5079329416426 554.8103293903034 1928.444732469949 554.8103293903034ZM2013.1006213679761 554.8103293903034L2013.1006213679761 554.8103293903034Q2000.5303981305256 554.8103293903034 1995.0879830416848 547.4016223983981Q1989.6455679528444 539.9929154064928 1989.6455679528444 523.2092095196173L1989.6455679528444 523.2092095196173L1989.6455679528444 450.9830944373937L1972.7565249997333 450.9830944373937L1972.7565249997333 447.1558476974995L1989.6455679528444 447.1558476974995L1989.6455679528444 416.0463008025796Q1994.4910729996827 416.1867502242271 1999.1610162694624 415.23871662810654Q2003.866071894653 414.3257953873978 2008.0444421886664 413.0968629479823L2008.0444421886664 413.0968629479823L2008.0444421886664 447.1558476974995L2032.6230909769774 447.1558476974995L2032.6230909769774 450.9830944373937L2008.0444421886664 450.9830944373937L2008.0444421886664 536.6572416423649Q2008.0444421886664 542.696566773207 2010.3267452904379 545.6108922723924Q2012.6090483922098 548.525217771578 2018.1919129026974 548.525217771578L2018.1919129026974 548.525217771578Q2023.5992156361262 548.525217771578 2027.812698285551 542.0996567312052Q2031.991068579564 535.6740956908322 2033.60623692851 526.053310307979L2033.60623692851 526.053310307979L2036.4503377168717 526.896006837864Q2031.7452820916806 554.8103293903034 2013.1006213679761 554.8103293903034Z " fill="#ec8b5e" transform="matrix(0.42966921903982913,0,0,0.4296692190398291,0,93.8402639519443)"/></g></svg>